<?xml version="1.0" encoding="utf-8" ?>
<svg xmlns="http://www.w3.org/2000/svg" width="1024" height="1024">
	<path d="M229.186 482.761C234.877 482.404 240.793 482.545 246.482 482.867C255.576 501.647 262.244 521.652 271.418 540.336Q283.511 511.453 296.306 482.873Q304.891 482.813 313.474 483.007L306.166 500.321Q292.555 532.812 277.864 564.83C273.361 564.958 268.838 564.862 264.332 564.853C252.866 537.395 240.341 510.339 229.186 482.761Z"/>
	<path d="M322.57 482.535C335.185 482.478 354.88 480.829 366.455 484.752C372.473 486.791 377.905 490.781 380.648 496.635C383.612 502.958 383.463 511.131 381.119 517.65C378.762 524.205 374.174 527.77 368.104 530.655C375.928 542.172 384.402 553.386 392.472 564.75C386.215 564.956 379.892 564.75 373.629 564.722C368.686 561.008 355.592 540.017 351.389 533.641Q345.335 533.591 339.282 533.753C338.797 544.004 339.254 554.385 339.427 564.646C333.884 564.986 328.299 564.822 322.748 564.788Q322.998 523.661 322.57 482.535ZM340.804 497.243L339.743 497.577C338.145 503.629 339.13 513.462 339.209 519.888C346.486 519.997 354.203 520.849 360.976 517.692C363.493 516.001 365.314 513.684 365.85 510.641C366.356 507.765 365.91 504.517 364.126 502.14C361.618 498.798 357.152 497.686 353.205 497.282C349.182 496.87 344.842 497.006 340.804 497.243Z"/>
	<path d="M696.728 482.343Q702.926 482.246 709.124 482.344C714.857 492.096 720.866 501.628 726.758 511.28C731.509 519.062 736.036 526.977 741.073 534.582Q756.99 508.671 772.433 482.475L784.362 482.543C783.817 510.167 784.395 537.838 784.475 565.469L768.044 565.546L768.019 548.75Q768.253 532.909 767.982 517.068C759.857 529.816 752.425 542.715 745.329 556.058L736.385 556.082Q724.974 536.323 712.955 516.928C713.54 522.88 713.35 528.954 713.387 534.931L713.466 565.546L696.89 565.53C696.569 551.69 696.886 537.777 696.873 523.93C696.861 510.069 696.531 496.201 696.728 482.343Z"/>
	<path d="M632.248 480.797Q633.306 480.644 634.37 480.543Q635.434 480.443 636.501 480.394Q637.569 480.346 638.638 480.35Q639.706 480.354 640.773 480.41Q641.841 480.467 642.904 480.575Q643.967 480.684 645.023 480.845Q646.08 481.005 647.128 481.218Q648.175 481.43 649.211 481.694Q650.246 481.957 651.268 482.271Q652.289 482.585 653.294 482.949Q654.299 483.312 655.285 483.725Q656.271 484.137 657.235 484.598Q658.2 485.058 659.141 485.565Q660.081 486.073 660.996 486.625Q661.911 487.178 662.797 487.775Q663.684 488.372 664.54 489.011Q665.396 489.651 666.219 490.332Q667.043 491.013 667.832 491.733Q668.622 492.454 669.375 493.212Q670.128 493.971 670.843 494.765Q671.558 495.559 672.233 496.388Q672.908 497.216 673.542 498.077Q674.175 498.938 674.766 499.828Q675.357 500.719 675.903 501.637Q676.449 502.556 676.95 503.5Q677.45 504.444 677.904 505.412Q678.357 506.38 678.763 507.368Q679.169 508.357 679.525 509.365Q679.882 510.372 680.189 511.396Q680.495 512.42 680.752 513.457Q681.008 514.495 681.213 515.544Q681.418 516.592 681.571 517.65Q681.724 518.708 681.825 519.772Q681.927 520.835 681.976 521.903Q682.024 522.971 682.021 524.039Q682.017 525.108 681.962 526.175Q681.906 527.242 681.797 528.306Q681.689 529.369 681.529 530.425Q681.369 531.482 681.157 532.53Q680.945 533.577 680.682 534.613Q680.419 535.649 680.105 536.67Q679.792 537.692 679.429 538.697Q679.065 539.702 678.653 540.688Q678.241 541.674 677.781 542.639Q677.321 543.604 676.814 544.544Q676.308 545.485 675.755 546.4Q675.203 547.315 674.607 548.202Q674.01 549.089 673.371 549.945Q672.731 550.801 672.051 551.625Q671.37 552.449 670.65 553.239Q669.93 554.029 669.172 554.782Q668.414 555.535 667.62 556.251Q666.826 556.966 665.998 557.641Q665.17 558.317 664.309 558.951Q663.449 559.585 662.559 560.176Q661.668 560.767 660.75 561.314Q659.832 561.86 658.888 562.361Q657.944 562.862 656.976 563.316Q656.009 563.77 655.02 564.176Q654.032 564.582 653.024 564.94Q652.017 565.297 650.994 565.604Q649.97 565.911 648.933 566.168Q647.895 566.424 646.846 566.63Q645.798 566.835 644.74 566.989Q643.682 567.143 642.617 567.245Q641.553 567.346 640.485 567.396Q639.417 567.445 638.347 567.442Q637.278 567.439 636.21 567.383Q635.142 567.328 634.078 567.22Q633.015 567.112 631.957 566.952Q630.9 566.792 629.852 566.58Q628.804 566.368 627.767 566.105Q626.731 565.842 625.709 565.529Q624.686 565.215 623.681 564.852Q622.675 564.489 621.688 564.076Q620.702 563.664 619.736 563.204Q618.771 562.744 617.83 562.237Q616.888 561.73 615.973 561.178Q615.057 560.625 614.17 560.028Q613.283 559.431 612.426 558.792Q611.569 558.152 610.745 557.471Q609.92 556.79 609.13 556.07Q608.34 555.349 607.586 554.591Q606.833 553.832 606.117 553.038Q605.401 552.243 604.726 551.414Q604.05 550.586 603.416 549.725Q602.781 548.864 602.19 547.973Q601.599 547.082 601.052 546.163Q600.505 545.244 600.005 544.299Q599.503 543.355 599.049 542.386Q598.595 541.418 598.189 540.429Q597.783 539.44 597.426 538.432Q597.07 537.424 596.763 536.4Q596.455 535.375 596.199 534.337Q595.943 533.299 595.738 532.25Q595.532 531.2 595.379 530.142Q595.226 529.084 595.124 528.019Q595.023 526.955 594.974 525.887Q594.925 524.818 594.929 523.749Q594.932 522.68 594.989 521.612Q595.045 520.544 595.153 519.48Q595.261 518.417 595.422 517.359Q595.582 516.302 595.795 515.254Q596.007 514.206 596.27 513.17Q596.534 512.133 596.848 511.111Q597.161 510.089 597.525 509.083Q597.889 508.078 598.302 507.091Q598.714 506.105 599.175 505.14Q599.635 504.175 600.143 503.234Q600.65 502.292 601.203 501.377Q601.756 500.462 602.353 499.575Q602.951 498.688 603.591 497.831Q604.231 496.975 604.912 496.15Q605.593 495.326 606.314 494.537Q607.035 493.747 607.794 492.993Q608.553 492.24 609.348 491.525Q610.142 490.81 610.971 490.134Q611.8 489.459 612.662 488.825Q613.523 488.191 614.414 487.6Q615.305 487.009 616.225 486.463Q617.144 485.917 618.089 485.416Q619.034 484.916 620.002 484.462Q620.97 484.008 621.96 483.603Q622.949 483.197 623.957 482.841Q624.965 482.484 625.99 482.178Q627.014 481.871 628.052 481.615Q629.091 481.359 630.14 481.155Q631.19 480.95 632.248 480.797ZM634.011 496.815Q633.346 496.924 632.688 497.066Q632.03 497.207 631.379 497.381Q630.728 497.555 630.087 497.76Q629.446 497.965 628.815 498.202Q628.184 498.438 627.566 498.705Q626.948 498.973 626.343 499.269Q625.739 499.567 625.15 499.893Q624.561 500.219 623.988 500.574Q623.416 500.928 622.861 501.311Q622.307 501.693 621.772 502.102Q621.237 502.511 620.722 502.946Q620.208 503.38 619.716 503.84Q619.223 504.299 618.754 504.782Q618.284 505.265 617.839 505.77Q617.394 506.275 616.974 506.802Q616.554 507.328 616.16 507.875Q615.767 508.421 615.4 508.986Q615.034 509.551 614.695 510.134Q614.357 510.716 614.048 511.314Q613.738 511.912 613.458 512.525Q613.179 513.137 612.929 513.763Q612.68 514.389 612.461 515.026Q612.243 515.663 612.056 516.31Q611.869 516.957 611.714 517.612Q611.558 518.267 611.435 518.929Q611.313 519.591 611.222 520.259Q611.132 520.926 611.074 521.597Q611.017 522.268 610.992 522.941Q610.968 523.614 610.976 524.288Q610.984 524.961 611.026 525.633Q611.067 526.305 611.141 526.975Q611.215 527.644 611.322 528.309Q611.429 528.974 611.568 529.633Q611.707 530.292 611.879 530.943Q612.05 531.594 612.253 532.236Q612.456 532.878 612.69 533.51Q612.925 534.141 613.189 534.76Q613.454 535.38 613.749 535.985Q614.044 536.591 614.368 537.181Q614.692 537.771 615.045 538.345Q615.397 538.919 615.778 539.474Q616.158 540.03 616.565 540.567Q616.972 541.103 617.405 541.619Q617.838 542.135 618.295 542.629Q618.753 543.123 619.234 543.594Q619.715 544.065 620.219 544.512Q620.723 544.959 621.248 545.381Q621.773 545.803 622.318 546.199Q622.863 546.594 623.426 546.963Q623.99 547.331 624.571 547.672Q625.152 548.012 625.749 548.323Q626.346 548.635 626.958 548.917Q627.57 549.199 628.194 549.451Q628.819 549.702 629.455 549.923Q630.091 550.144 630.738 550.333Q631.384 550.523 632.039 550.68Q632.693 550.838 633.355 550.963Q634.017 551.088 634.684 551.181Q635.351 551.274 636.022 551.334Q636.692 551.393 637.365 551.421Q638.038 551.448 638.711 551.442Q639.385 551.436 640.057 551.397Q640.729 551.358 641.399 551.286Q642.069 551.214 642.734 551.11Q643.402 551.005 644.065 550.867Q644.727 550.73 645.382 550.56Q646.037 550.39 646.682 550.187Q647.328 549.985 647.963 549.752Q648.598 549.518 649.22 549.254Q649.843 548.989 650.452 548.694Q651.061 548.4 651.654 548.075Q652.248 547.751 652.825 547.398Q653.402 547.044 653.961 546.663Q654.52 546.282 655.059 545.874Q655.599 545.466 656.117 545.031Q656.636 544.597 657.133 544.138Q657.63 543.679 658.103 543.196Q658.577 542.713 659.026 542.207Q659.476 541.701 659.899 541.174Q660.323 540.647 660.721 540.099Q661.118 539.552 661.488 538.985Q661.858 538.419 662.2 537.835Q662.542 537.251 662.854 536.651Q663.167 536.051 663.449 535.437Q663.732 534.822 663.984 534.194Q664.236 533.566 664.457 532.927Q664.678 532.288 664.867 531.638Q665.057 530.989 665.214 530.331Q665.371 529.673 665.495 529.008Q665.62 528.343 665.711 527.672Q665.803 527.002 665.862 526.328Q665.92 525.654 665.946 524.978Q665.971 524.302 665.963 523.626Q665.955 522.949 665.914 522.274Q665.873 521.599 665.799 520.926Q665.724 520.254 665.617 519.586Q665.51 518.918 665.37 518.256Q665.23 517.594 665.057 516.94Q664.885 516.286 664.68 515.641Q664.476 514.996 664.24 514.362Q664.004 513.728 663.738 513.106Q663.471 512.484 663.174 511.877Q662.877 511.269 662.551 510.676Q662.224 510.084 661.869 509.508Q661.513 508.932 661.13 508.375Q660.747 507.817 660.337 507.279Q659.927 506.741 659.491 506.224Q659.055 505.706 658.594 505.211Q658.133 504.716 657.648 504.244Q657.163 503.772 656.656 503.325Q656.148 502.877 655.62 502.455Q655.091 502.033 654.542 501.638Q653.993 501.242 653.425 500.874Q652.858 500.506 652.273 500.167Q651.688 499.827 651.086 499.517Q650.485 499.206 649.87 498.926Q649.254 498.645 648.625 498.396Q647.997 498.146 647.357 497.927Q646.716 497.708 646.066 497.521Q645.416 497.334 644.757 497.18Q644.099 497.025 643.433 496.903Q642.768 496.781 642.097 496.692Q641.427 496.602 640.752 496.546Q640.078 496.49 639.402 496.467Q638.726 496.444 638.05 496.454Q637.373 496.465 636.698 496.508Q636.023 496.552 635.351 496.629Q634.679 496.705 634.011 496.815Z"/>
	<path d="M532.691 480.802Q533.743 480.63 534.801 480.51Q535.86 480.391 536.923 480.322Q537.987 480.254 539.052 480.238Q540.118 480.222 541.182 480.258Q542.247 480.294 543.309 480.383Q544.371 480.471 545.427 480.611Q546.484 480.75 547.532 480.942Q548.58 481.133 549.618 481.375Q550.655 481.618 551.68 481.911Q552.704 482.203 553.713 482.546Q554.722 482.888 555.713 483.28Q556.704 483.671 557.675 484.111Q558.646 484.55 559.594 485.036Q560.542 485.523 561.465 486.055Q562.388 486.587 563.284 487.163Q564.18 487.74 565.047 488.36Q565.914 488.979 566.749 489.641Q567.585 490.302 568.387 491.003Q569.189 491.705 569.956 492.444Q570.723 493.184 571.452 493.96Q572.182 494.737 572.873 495.548Q573.564 496.359 574.215 497.203Q574.865 498.047 575.474 498.921Q576.082 499.796 576.647 500.699Q577.212 501.603 577.732 502.533Q578.253 503.463 578.727 504.417Q579.201 505.371 579.628 506.347Q580.055 507.324 580.433 508.319Q580.812 509.315 581.141 510.329Q581.471 511.342 581.751 512.37Q582.03 513.398 582.259 514.439Q582.488 515.479 582.666 516.53Q582.844 517.581 582.97 518.639Q583.096 519.697 583.171 520.76Q583.245 521.823 583.268 522.888Q583.29 523.953 583.26 525.018Q583.231 526.083 583.149 527.146Q583.067 528.208 582.934 529.265Q582.8 530.322 582.615 531.372Q582.43 532.421 582.194 533.46Q581.958 534.499 581.671 535.525Q581.384 536.552 581.048 537.563Q580.711 538.574 580.326 539.567Q579.94 540.56 579.507 541.534Q579.073 542.507 578.592 543.458Q578.112 544.409 577.585 545.335Q577.059 546.262 576.487 547.161Q575.916 548.06 575.302 548.931Q574.687 549.801 574.031 550.641Q573.374 551.48 572.678 552.287Q571.981 553.093 571.246 553.864Q570.511 554.635 569.739 555.37Q568.967 556.104 568.16 556.8Q567.353 557.496 566.513 558.152Q565.673 558.807 564.802 559.421Q563.931 560.035 563.031 560.605Q562.131 561.175 561.204 561.701Q560.277 562.227 559.326 562.707Q558.375 563.186 557.401 563.619Q556.427 564.052 555.433 564.436Q554.44 564.821 553.428 565.156Q552.417 565.492 551.391 565.778Q550.364 566.063 549.325 566.299Q548.286 566.534 547.236 566.718Q546.179 566.904 545.113 567.037Q544.048 567.17 542.977 567.251Q541.907 567.331 540.833 567.359Q539.76 567.387 538.687 567.362Q537.613 567.336 536.542 567.258Q535.472 567.181 534.406 567.05Q533.34 566.919 532.282 566.736Q531.224 566.553 530.177 566.318Q529.129 566.084 528.094 565.797Q527.059 565.511 526.04 565.175Q525.021 564.838 524.019 564.451Q523.017 564.065 522.036 563.629Q521.054 563.194 520.096 562.711Q519.137 562.227 518.203 561.697Q517.269 561.167 516.363 560.592Q515.456 560.017 514.579 559.398Q513.702 558.778 512.856 558.117Q512.011 557.455 511.199 556.753Q510.387 556.05 509.611 555.309Q508.834 554.567 508.095 553.788Q507.357 553.009 506.657 552.195Q505.957 551.38 505.299 550.532Q504.64 549.684 504.024 548.805Q503.408 547.926 502.836 547.017Q502.264 546.109 501.737 545.173Q501.211 544.237 500.731 543.277Q500.251 542.316 499.819 541.333Q499.387 540.351 499.004 539.348Q498.621 538.345 498.288 537.324Q497.955 536.303 497.672 535.267Q497.389 534.232 497.158 533.183Q496.927 532.135 496.748 531.076Q496.569 530.017 496.442 528.951Q496.315 527.885 496.241 526.814Q496.167 525.743 496.145 524.67Q496.124 523.596 496.156 522.523Q496.187 521.45 496.272 520.379Q496.356 519.309 496.493 518.244Q496.63 517.179 496.819 516.122Q497.008 515.066 497.25 514.019Q497.491 512.973 497.783 511.94Q498.075 510.907 498.418 509.89Q498.761 508.872 499.154 507.873Q499.546 506.873 499.987 505.895Q500.429 504.916 500.918 503.96Q501.407 503.004 501.942 502.074Q502.478 501.143 503.058 500.24Q503.639 499.337 504.263 498.463Q504.888 497.59 505.555 496.749Q506.221 495.907 506.928 495.099Q507.636 494.291 508.382 493.52Q509.128 492.748 509.912 492.013Q510.695 491.279 511.514 490.585Q512.332 489.89 513.184 489.236Q514.036 488.583 514.919 487.972Q515.802 487.361 516.714 486.794Q517.626 486.228 518.565 485.707Q519.503 485.186 520.467 484.712Q521.43 484.238 522.415 483.812Q523.401 483.385 524.406 483.008Q525.411 482.631 526.434 482.304Q527.457 481.977 528.494 481.701Q529.532 481.425 530.581 481.2Q531.631 480.975 532.691 480.802ZM536.113 496.769Q535.443 496.855 534.778 496.973Q534.113 497.092 533.454 497.243Q532.796 497.394 532.146 497.577Q531.496 497.76 530.855 497.975Q530.215 498.19 529.586 498.437Q528.957 498.683 528.341 498.96Q527.725 499.236 527.123 499.543Q526.521 499.85 525.935 500.186Q525.349 500.522 524.78 500.887Q524.211 501.251 523.661 501.643Q523.111 502.035 522.581 502.453Q522.05 502.872 521.541 503.316Q521.032 503.76 520.546 504.229Q520.059 504.697 519.596 505.189Q519.133 505.681 518.695 506.195Q518.257 506.709 517.844 507.244Q517.432 507.779 517.047 508.334Q516.661 508.888 516.303 509.461Q515.945 510.034 515.616 510.624Q515.286 511.214 514.987 511.819Q514.687 512.424 514.417 513.044Q514.147 513.663 513.908 514.295Q513.669 514.927 513.461 515.569Q513.254 516.212 513.078 516.864Q512.902 517.517 512.759 518.177Q512.615 518.837 512.504 519.503Q512.393 520.17 512.315 520.841Q512.237 521.511 512.192 522.185Q512.148 522.859 512.136 523.535Q512.124 524.21 512.146 524.885Q512.167 525.561 512.222 526.234Q512.276 526.907 512.364 527.577Q512.452 528.247 512.572 528.912Q512.693 529.576 512.846 530.234Q512.999 530.892 513.184 531.542Q513.369 532.191 513.586 532.831Q513.803 533.471 514.051 534.099Q514.299 534.728 514.578 535.343Q514.857 535.958 515.165 536.559Q515.474 537.16 515.812 537.745Q516.149 538.33 516.515 538.898Q516.882 539.466 517.275 540.015Q517.669 540.564 518.089 541.093Q518.509 541.622 518.955 542.129Q519.4 542.637 519.87 543.122Q520.34 543.608 520.833 544.069Q521.327 544.531 521.842 544.967Q522.358 545.404 522.894 545.815Q523.43 546.226 523.986 546.609Q524.542 546.993 525.116 547.35Q525.69 547.706 526.281 548.033Q526.871 548.361 527.478 548.659Q528.084 548.957 528.704 549.225Q529.324 549.493 529.957 549.73Q530.589 549.967 531.233 550.173Q531.876 550.378 532.529 550.552Q533.182 550.726 533.842 550.868Q534.503 551.009 535.169 551.118Q535.836 551.227 536.507 551.303Q537.179 551.379 537.853 551.422Q538.527 551.465 539.202 551.474Q539.878 551.484 540.553 551.461Q541.228 551.437 541.901 551.38Q542.574 551.324 543.244 551.234Q543.911 551.145 544.573 551.023Q545.235 550.901 545.89 550.747Q546.545 550.592 547.191 550.406Q547.838 550.22 548.475 550.003Q549.112 549.785 549.737 549.537Q550.362 549.288 550.975 549.009Q551.587 548.731 552.185 548.422Q552.783 548.114 553.366 547.776Q553.948 547.439 554.513 547.074Q555.078 546.708 555.624 546.315Q556.171 545.923 556.698 545.504Q557.224 545.085 557.729 544.64Q558.235 544.196 558.718 543.728Q559.201 543.259 559.66 542.767Q560.12 542.276 560.555 541.762Q560.99 541.249 561.399 540.715Q561.808 540.18 562.191 539.627Q562.573 539.073 562.928 538.502Q563.283 537.93 563.61 537.342Q563.937 536.753 564.234 536.15Q564.531 535.546 564.799 534.928Q565.066 534.311 565.303 533.681Q565.54 533.051 565.746 532.411Q565.952 531.77 566.126 531.12Q566.3 530.47 566.442 529.812Q566.584 529.154 566.694 528.49Q566.803 527.826 566.881 527.158Q566.958 526.49 567.002 525.818Q567.046 525.147 567.057 524.474Q567.069 523.801 567.047 523.128Q567.025 522.456 566.971 521.785Q566.916 521.114 566.829 520.447Q566.742 519.78 566.622 519.118Q566.502 518.455 566.35 517.8Q566.197 517.144 566.013 516.497Q565.829 515.85 565.614 515.212Q565.398 514.575 565.151 513.949Q564.905 513.323 564.628 512.709Q564.351 512.096 564.044 511.497Q563.738 510.898 563.402 510.315Q563.066 509.732 562.703 509.165Q562.339 508.599 561.948 508.052Q561.557 507.504 561.139 506.976Q560.722 506.448 560.279 505.942Q559.836 505.435 559.369 504.95Q558.902 504.466 558.412 504.005Q557.922 503.544 557.41 503.107Q556.897 502.671 556.365 502.26Q555.832 501.849 555.279 501.465Q554.727 501.081 554.156 500.724Q553.585 500.367 552.998 500.039Q552.411 499.711 551.808 499.411Q551.205 499.112 550.588 498.843Q549.972 498.573 549.343 498.335Q548.713 498.096 548.073 497.888Q547.433 497.68 546.784 497.504Q546.134 497.328 545.477 497.184Q544.82 497.04 544.156 496.928Q543.492 496.817 542.824 496.738Q542.156 496.659 541.485 496.612Q540.813 496.566 540.14 496.553Q539.468 496.539 538.795 496.559Q538.122 496.579 537.451 496.631Q536.781 496.684 536.113 496.769Z"/>
	<path d="M432.273 480.705Q433.332 480.523 434.398 480.394Q435.465 480.265 436.536 480.188Q437.608 480.112 438.682 480.088Q439.756 480.064 440.829 480.093Q441.903 480.122 442.974 480.203Q444.046 480.285 445.111 480.419Q446.177 480.554 447.235 480.74Q448.293 480.927 449.34 481.165Q450.388 481.404 451.422 481.693Q452.457 481.983 453.476 482.323Q454.495 482.663 455.496 483.053Q456.497 483.443 457.477 483.881Q458.458 484.32 459.416 484.806Q460.374 485.292 461.307 485.825Q462.24 486.358 463.145 486.936Q464.051 487.514 464.927 488.135Q465.803 488.757 466.647 489.421Q467.491 490.086 468.302 490.79Q469.113 491.495 469.888 492.239Q470.663 492.983 471.4 493.764Q472.138 494.545 472.836 495.362Q473.534 496.178 474.191 497.028Q474.848 497.878 475.463 498.759Q476.078 499.64 476.648 500.55Q477.219 501.46 477.744 502.397Q478.269 503.334 478.747 504.296Q479.226 505.258 479.656 506.242Q480.087 507.226 480.468 508.23Q480.85 509.235 481.182 510.256Q481.513 511.278 481.794 512.315Q482.076 513.352 482.305 514.401Q482.535 515.451 482.713 516.51Q482.891 517.569 483.016 518.636Q483.142 519.703 483.215 520.775Q483.288 521.847 483.308 522.921Q483.328 523.995 483.296 525.068Q483.263 526.142 483.178 527.213Q483.092 528.284 482.954 529.349Q482.816 530.414 482.626 531.472Q482.436 532.529 482.194 533.576Q481.952 534.622 481.659 535.656Q481.366 536.689 481.022 537.707Q480.678 538.725 480.285 539.724Q479.892 540.724 479.45 541.703Q479.008 542.682 478.518 543.638Q478.029 544.594 477.493 545.526Q476.957 546.456 476.376 547.36Q475.795 548.263 475.17 549.137Q474.545 550.011 473.878 550.853Q473.211 551.695 472.504 552.503Q471.796 553.312 471.049 554.084Q470.303 554.857 469.519 555.591Q468.736 556.326 467.917 557.021Q467.098 557.717 466.246 558.371Q465.394 559.025 464.511 559.637Q463.628 560.249 462.716 560.816Q461.804 561.383 460.865 561.905Q459.926 562.427 458.962 562.902Q457.999 563.377 457.013 563.804Q456.027 564.232 455.022 564.61Q454.016 564.988 452.994 565.316Q451.971 565.644 450.933 565.922Q449.895 566.199 448.845 566.426Q447.795 566.652 446.735 566.826Q445.68 566.999 444.617 567.121Q443.554 567.243 442.487 567.312Q441.42 567.382 440.351 567.399Q439.281 567.416 438.212 567.38Q437.143 567.345 436.077 567.258Q435.011 567.17 433.951 567.03Q432.891 566.891 431.839 566.699Q430.786 566.508 429.745 566.265Q428.703 566.022 427.674 565.729Q426.646 565.436 425.633 565.092Q424.62 564.749 423.625 564.356Q422.63 563.964 421.656 563.523Q420.682 563.082 419.73 562.594Q418.778 562.106 417.852 561.572Q416.925 561.038 416.025 560.459Q415.126 559.881 414.256 559.259Q413.386 558.636 412.548 557.973Q411.709 557.309 410.904 556.604Q410.099 555.9 409.33 555.157Q408.56 554.415 407.828 553.635Q407.096 552.856 406.402 552.041Q405.709 551.227 405.057 550.379Q404.404 549.532 403.794 548.654Q403.184 547.775 402.617 546.868Q402.051 545.961 401.529 545.027Q401.008 544.093 400.533 543.135Q400.058 542.177 399.63 541.197Q399.203 540.216 398.824 539.216Q398.444 538.216 398.115 537.199Q397.785 536.181 397.506 535.149Q397.226 534.116 396.998 533.072Q396.769 532.027 396.592 530.972Q396.415 529.917 396.29 528.855Q396.164 527.793 396.091 526.726Q396.018 525.659 395.997 524.589Q395.976 523.52 396.008 522.451Q396.04 521.382 396.124 520.316Q396.207 519.249 396.343 518.189Q396.479 517.128 396.667 516.075Q396.855 515.022 397.094 513.979Q397.333 512.937 397.623 511.907Q397.913 510.878 398.253 509.864Q398.593 508.85 398.982 507.854Q399.371 506.857 399.808 505.881Q400.246 504.905 400.731 503.952Q401.215 502.999 401.746 502.07Q402.277 501.142 402.853 500.24Q403.428 499.339 404.047 498.467Q404.666 497.595 405.327 496.754Q405.988 495.913 406.69 495.105Q407.391 494.298 408.131 493.526Q408.871 492.754 409.648 492.019Q410.425 491.284 411.237 490.588Q412.049 489.892 412.895 489.236Q413.74 488.581 414.616 487.968Q415.492 487.354 416.398 486.785Q417.303 486.215 418.235 485.691Q419.167 485.166 420.123 484.688Q421.08 484.209 422.059 483.778Q423.038 483.347 424.036 482.965Q425.035 482.582 426.052 482.249Q427.068 481.916 428.099 481.633Q429.131 481.35 430.175 481.118Q431.219 480.886 432.273 480.705ZM436.357 496.73Q435.689 496.811 435.026 496.924Q434.363 497.037 433.706 497.183Q433.049 497.329 432.401 497.506Q431.752 497.684 431.112 497.893Q430.473 498.102 429.845 498.342Q429.216 498.583 428.601 498.853Q427.985 499.124 427.383 499.424Q426.781 499.725 426.195 500.055Q425.608 500.384 425.039 500.742Q424.469 501.1 423.918 501.485Q423.366 501.871 422.834 502.283Q422.302 502.695 421.791 503.132Q421.28 503.569 420.791 504.031Q420.302 504.493 419.836 504.979Q419.371 505.464 418.929 505.971Q418.488 506.479 418.071 507.008Q417.655 507.536 417.266 508.084Q416.876 508.633 416.513 509.199Q416.151 509.766 415.816 510.35Q415.482 510.934 415.177 511.533Q414.872 512.132 414.596 512.746Q414.32 513.36 414.075 513.986Q413.83 514.612 413.616 515.25Q413.401 515.888 413.218 516.535Q413.036 517.183 412.885 517.838Q412.734 518.494 412.615 519.156Q412.497 519.818 412.41 520.485Q412.324 521.152 412.271 521.823Q412.218 522.494 412.197 523.166Q412.177 523.838 412.189 524.511Q412.202 525.183 412.247 525.855Q412.293 526.526 412.371 527.194Q412.449 527.862 412.56 528.526Q412.671 529.189 412.814 529.846Q412.957 530.504 413.132 531.153Q413.308 531.803 413.514 532.443Q413.721 533.083 413.959 533.712Q414.197 534.341 414.465 534.958Q414.734 535.575 415.032 536.178Q415.33 536.781 415.657 537.369Q415.985 537.956 416.341 538.527Q416.696 539.098 417.08 539.651Q417.463 540.204 417.873 540.737Q418.283 541.271 418.718 541.784Q419.154 542.296 419.614 542.787Q420.074 543.278 420.558 543.745Q421.041 544.213 421.547 544.656Q422.053 545.1 422.58 545.518Q423.107 545.936 423.654 546.328Q424.2 546.72 424.766 547.084Q425.331 547.449 425.914 547.785Q426.496 548.122 427.094 548.429Q427.693 548.737 428.305 549.015Q428.918 549.293 429.543 549.54Q430.169 549.788 430.806 550.005Q431.443 550.221 432.089 550.407Q432.736 550.592 433.391 550.745Q434.046 550.898 434.708 551.02Q435.369 551.141 436.036 551.229Q436.703 551.318 437.374 551.374Q438.044 551.43 438.716 551.453Q439.389 551.475 440.061 551.466Q440.734 551.456 441.405 551.413Q442.077 551.37 442.745 551.294Q443.417 551.218 444.084 551.109Q444.751 551 445.412 550.858Q446.073 550.717 446.726 550.543Q447.379 550.369 448.023 550.163Q448.667 549.957 449.299 549.719Q449.932 549.482 450.553 549.214Q451.173 548.946 451.78 548.647Q452.386 548.349 452.977 548.021Q453.568 547.693 454.143 547.337Q454.717 546.98 455.273 546.596Q455.829 546.211 456.365 545.8Q456.902 545.389 457.417 544.952Q457.933 544.515 458.426 544.053Q458.92 543.591 459.39 543.105Q459.86 542.619 460.306 542.111Q460.751 541.603 461.172 541.073Q461.592 540.544 461.985 539.995Q462.379 539.445 462.745 538.877Q463.111 538.309 463.449 537.723Q463.786 537.137 464.095 536.536Q464.403 535.935 464.682 535.319Q464.961 534.703 465.208 534.074Q465.456 533.445 465.673 532.805Q465.89 532.165 466.075 531.515Q466.259 530.864 466.412 530.206Q466.565 529.547 466.685 528.882Q466.805 528.217 466.892 527.547Q466.98 526.877 467.034 526.203Q467.088 525.529 467.109 524.853Q467.13 524.178 467.118 523.502Q467.106 522.826 467.06 522.152Q467.015 521.477 466.936 520.806Q466.857 520.135 466.746 519.468Q466.634 518.801 466.49 518.141Q466.346 517.481 466.17 516.828Q465.993 516.176 465.785 515.533Q465.576 514.89 465.337 514.258Q465.097 513.626 464.826 513.006Q464.556 512.387 464.255 511.781Q463.954 511.176 463.624 510.586Q463.294 509.996 462.936 509.423Q462.577 508.85 462.19 508.296Q461.804 507.741 461.391 507.206Q460.978 506.672 460.538 506.158Q460.099 505.644 459.636 505.152Q459.172 504.66 458.684 504.192Q458.197 503.724 457.687 503.28Q457.177 502.836 456.646 502.418Q456.115 502 455.564 501.608Q455.013 501.217 454.443 500.853Q453.874 500.489 453.287 500.154Q452.7 499.818 452.098 499.512Q451.495 499.206 450.878 498.929Q450.261 498.653 449.631 498.408Q449.002 498.162 448.361 497.948Q447.72 497.734 447.069 497.551Q446.418 497.369 445.759 497.219Q445.1 497.068 444.434 496.951Q443.769 496.833 443.098 496.748Q442.427 496.664 441.753 496.612Q441.079 496.56 440.404 496.542Q439.728 496.523 439.052 496.538Q438.377 496.553 437.702 496.601Q437.028 496.649 436.357 496.73Z"/>
	<path d="M507.344 369.688C523.75 368.934 541.913 373.121 556.242 381.148C579.109 393.956 594.444 417.374 601.395 442.292L518.25 442.13Q470.681 442.032 423.112 442.411C426.617 427.969 432.127 414.891 441.62 403.324C458.549 382.695 481.157 372.317 507.344 369.688Z"/>
	<path d="M688.837 369.696C704.122 367.383 723.149 373.293 736.603 380.171C763.776 394.06 775.378 414.235 784.52 442.327C756.513 443.032 728.281 442.138 700.25 442.084L603.114 442.172C607.816 428.516 612.608 415.822 621.777 404.408C638.492 383.598 662.678 372.507 688.837 369.696Z"/>
	<path d="M321.8 369.694C338.363 367.011 359.735 373.043 374.156 381.017C398.435 394.441 412.396 416.275 419.955 442.41Q378.853 442.103 337.75 442.226L271.534 442.213C260.95 442.193 250.228 442.669 239.665 442.159C242.965 427.973 248.724 415.145 257.907 403.777C274.133 383.689 296.27 372.354 321.8 369.694Z"/>
</svg>
